# xmcd
#
# Track frame offsets: 
#        150
#        27012
#        76692
#        98165
#        125870
#        164445
#        189882
#        220515
#        245667
#
# Disc length: 3584 seconds
#
# Revision: 1
# Processed by: cddbd v1.5.2PL0 Copyright (c) Steve Scherf et al.
# Submitted via: ExactAudioCopy v0.95b4
#
DISCID=6b0dfe09
DTITLE=Hank Mobley - Straight No Filter
DYEAR=1966
DGENRE=Jazz
TTITLE0=Straight No Filter
TTITLE1=Chain Reaction
TTITLE2=Soft Impressions
TTITLE3=Old World, New Imports
TTITLE4=Up A Step
TTITLE5=The Feelin's Good
TTITLE6=East Of The Village
TTITLE7=Yes Indeed
TTITLE8=The Good Life
EXTD=
EXTT0=
EXTT1=
EXTT2=
EXTT3=
EXTT4=
EXTT5=
EXTT6=
EXTT7=
EXTT8=
PLAYORDER=
